<?xml version="1.0" encoding="UTF-8"?>
<svg xmlns="http://www.w3.org/2000/svg" xmlns:xlink="http://www.w3.org/1999/xlink" width="375pt" height="374.999991pt" viewBox="0 0 375 374.999991" version="1.2">
<defs>
<clipPath id="clip1">
  <path d="M 234 0 L 328.125 0 L 328.125 94 L 234 94 Z M 234 0 "/>
</clipPath>
<clipPath id="clip2">
  <path d="M 46.875 0 L 328.125 0 L 328.125 375 L 46.875 375 Z M 46.875 0 "/>
</clipPath>
</defs>
<g id="surface1">
<g clip-path="url(#clip1)" clip-rule="nonzero">
<path style=" stroke:none;fill-rule:nonzero;fill:rgb(0%,29.019165%,67.83905%);fill-opacity:1;" d="M 234.375 0 L 234.375 93.75 L 328.125 93.75 Z M 234.375 0 "/>
</g>
<g clip-path="url(#clip2)" clip-rule="nonzero">
<path style=" stroke:none;fill-rule:nonzero;fill:rgb(0%,29.019165%,67.83905%);fill-opacity:1;" d="M 210.9375 93.75 L 210.9375 0 L 70.3125 0 C 57.398438 0 46.875 10.523438 46.875 23.4375 L 46.875 351.5625 C 46.875 364.5 57.398438 375 70.3125 375 L 304.6875 375 C 317.625 375 328.125 364.5 328.125 351.5625 L 328.125 117.1875 L 234.375 117.1875 C 221.460938 117.1875 210.9375 106.664062 210.9375 93.75 Z M 128.90625 71.765625 L 128.90625 58.59375 C 128.90625 52.125 134.15625 46.875 140.625 46.875 C 147.09375 46.875 152.34375 52.125 152.34375 58.59375 L 152.34375 71.789062 C 159.679688 73.453125 166.523438 76.546875 172.171875 81.140625 C 177.210938 85.21875 177.960938 92.601562 173.859375 97.617188 C 169.757812 102.65625 162.375 103.382812 157.382812 99.304688 C 152.953125 95.71875 147 93.75 140.625 93.75 C 127.921875 93.75 117.1875 101.789062 117.1875 111.328125 C 117.1875 120.867188 127.921875 128.90625 140.625 128.90625 C 166.476562 128.90625 187.5 147.304688 187.5 169.921875 C 187.5 188.976562 172.5 204.890625 152.34375 209.484375 L 152.34375 222.65625 C 152.34375 229.125 147.09375 234.375 140.625 234.375 C 134.15625 234.375 128.90625 229.125 128.90625 222.65625 L 128.90625 209.460938 C 121.570312 207.796875 114.726562 204.703125 109.078125 200.109375 C 104.039062 196.007812 103.289062 188.625 107.390625 183.609375 C 111.492188 178.546875 118.851562 177.84375 123.867188 181.921875 C 128.296875 185.53125 134.25 187.5 140.625 187.5 C 153.328125 187.5 164.0625 179.460938 164.0625 169.921875 C 164.0625 160.382812 153.328125 152.34375 140.625 152.34375 C 114.773438 152.34375 93.75 133.945312 93.75 111.328125 C 93.75 92.273438 108.75 76.359375 128.90625 71.765625 Z M 269.53125 328.125 L 105.46875 328.125 C 99 328.125 93.75 322.875 93.75 316.40625 C 93.75 309.9375 99 304.6875 105.46875 304.6875 L 269.53125 304.6875 C 276 304.6875 281.25 309.9375 281.25 316.40625 C 281.25 322.875 276 328.125 269.53125 328.125 Z M 269.53125 281.25 L 105.46875 281.25 C 99 281.25 93.75 276 93.75 269.53125 C 93.75 263.0625 99 257.8125 105.46875 257.8125 L 269.53125 257.8125 C 276 257.8125 281.25 263.0625 281.25 269.53125 C 281.25 276 276 281.25 269.53125 281.25 Z M 269.53125 234.375 L 222.65625 234.375 C 216.1875 234.375 210.9375 229.125 210.9375 222.65625 C 210.9375 216.1875 216.1875 210.9375 222.65625 210.9375 L 269.53125 210.9375 C 276 210.9375 281.25 216.1875 281.25 222.65625 C 281.25 229.125 276 234.375 269.53125 234.375 Z M 281.25 175.78125 C 281.25 182.25 276 187.5 269.53125 187.5 L 222.65625 187.5 C 216.1875 187.5 210.9375 182.25 210.9375 175.78125 C 210.9375 169.3125 216.1875 164.0625 222.65625 164.0625 L 269.53125 164.0625 C 276 164.0625 281.25 169.289062 281.25 175.78125 Z M 281.25 175.78125 "/>
</g>
</g>
</svg>
